<?xml version="1.0" encoding="UTF-8" standalone="no"?>
<!-- Created with Inkscape (http://www.inkscape.org/) -->

<svg
   width="1000"
   height="331.11502"
   viewBox="0 0 1000 331.11502"
   version="1.1"
   id="svg1"
   xml:space="preserve"
   xmlns:inkscape="http://www.inkscape.org/namespaces/inkscape"
   xmlns:sodipodi="http://sodipodi.sourceforge.net/DTD/sodipodi-0.dtd"
   xmlns="http://www.w3.org/2000/svg"
   xmlns:svg="http://www.w3.org/2000/svg"><sodipodi:namedview
     id="namedview1"
     pagecolor="#ffffff"
     bordercolor="#999999"
     borderopacity="1"
     inkscape:showpageshadow="2"
     inkscape:pageopacity="0"
     inkscape:pagecheckerboard="0"
     inkscape:deskcolor="#d1d1d1"
     inkscape:document-units="px" /><defs
     id="defs1"><style
       id="style1">.cls-1{fill:#333;}.cls-1,.cls-2,.cls-3{fill-rule:evenodd;}.cls-2{fill:#fff;}.cls-3{fill:#3aaf3c;}</style></defs><g
     inkscape:label="Layer 1"
     inkscape:groupmode="layer"
     id="layer1"
     transform="translate(4.1825231e-7,-0.44248918)"><g
       id="g55"
       transform="matrix(8.5605616,0,0,8.5605616,-396.30746,-367.70337)"><g
         id="g29"
         transform="matrix(0.37554344,0,0,0.37554344,20.375042,-31.278281)"><path
           style="font-size:103.877px;line-height:63.9956px;font-family:'Playfair Display';-inkscape-font-specification:'Playfair Display, Normal';letter-spacing:-5.11962px;word-spacing:3.69894px;fill:#aa8800;fill-opacity:0.94902;stroke-width:3.83973;stroke-linejoin:round"
           d="m 95.958167,210.98716 v 2.07739 c 2.354542,0.0692 4.120593,0.3462 5.297863,0.83096 1.24653,0.4155 2.07737,1.24635 2.49288,2.49287 0.41551,1.17727 0.62322,3.04718 0.62322,5.60948 v 45.8897 c 2.65063,-0.0832 4.8686,-0.4067 6.59649,-1.00252 1.1647,-0.38823 2.18275,-0.90049 3.06442,-1.52807 v -43.56685 c 0,-3.60106 0.48465,-5.99025 1.45417,-7.16752 0.96952,-1.17727 3.04714,-1.76579 6.2327,-1.76579 7.20212,0 12.88058,1.28088 17.03565,3.84318 4.22432,2.49304 7.23664,6.3021 9.03717,11.42669 1.86979,5.05534 2.805,11.4613 2.805,19.21743 0,7.54838 -0.83137,13.95383 -2.49339,19.21692 -1.66203,5.26309 -4.57049,9.27986 -8.72556,12.04991 -4.15508,2.7008 -10.00662,4.05091 -17.55501,4.05091 -3.18555,0 -5.29779,-0.58851 -6.33656,-1.76578 -0.96952,-1.17727 -1.59489,-3.56921 -1.45417,-7.16752 l 0.0565,-1.44405 c -1.0396,-0.10721 -1.93746,-0.0999 -3.01363,-0.0999 -2.50307,-0.0762 -4.20947,-0.047 -6.65697,-0.0555 l -0.0468,1.39181 c -0.0837,2.49163 -0.20771,4.36295 -0.62322,5.60948 -0.41551,1.24651 -1.24635,2.07736 -2.49288,2.49287 -1.17727,0.4155 -2.943321,0.69246 -5.297863,0.83095 v 2.07791 c 1.454277,-0.1385 3.358805,-0.20773 5.713343,-0.20773 2.35454,-0.0693 4.74373,-0.10387 7.16753,-0.10387 1.52352,0 3.18572,0.0346 4.98626,0.10387 1.86977,0 3.66993,0.0346 5.40122,0.10386 1.73127,0.0693 3.11653,0.10387 4.1553,0.10387 7.96388,0 14.75065,-1.55835 20.36,-4.67465 5.60935,-3.1163 9.86793,-7.47926 12.77648,-13.0886 2.9778,-5.6786 4.46691,-12.29176 4.46691,-19.84014 0,-11.56495 -3.01232,-20.42933 -9.03718,-26.59269 -6.02484,-6.2326 -15.23542,-9.34878 -27.63138,-9.34878 -1.93903,0 -4.43208,0.0346 -7.47913,0.10387 -3.04706,0.0693 -5.78243,0.13849 -8.20622,0.20774 -2.2853,0.0692 -4.60525,0.0692 -6.95979,0 -2.354538,-0.13851 -4.259066,-0.24236 -5.713343,-0.31161 z"
           id="path28"
           sodipodi:nodetypes="ccccscccsssccsscscscccssccccscssscscsscccc" /><path
           style="font-size:103.877px;line-height:63.9956px;font-family:'Playfair Display';-inkscape-font-specification:'Playfair Display, Normal';letter-spacing:-5.11962px;word-spacing:3.69894px;fill:#aa8800;fill-opacity:0.94902;stroke-width:3.83973;stroke-linejoin:round"
           d="m 69.018703,197.80176 v 2.07739 c 2.354543,0.0693 4.120596,0.3462 5.297868,0.83096 1.246522,0.4155 2.077363,1.24634 2.492871,2.49287 0.415507,1.17727 0.623218,3.04718 0.623218,5.60948 v 51.52295 c 0,2.49304 -0.207711,4.36295 -0.623218,5.60948 -0.415508,1.24652 -1.246349,2.07735 -2.492871,2.49287 -1.177272,0.4155 -2.943325,0.69245 -5.297868,0.83095 v 2.07791 c 2.562297,-0.0692 5.263046,-0.10387 8.102348,-0.10387 2.839302,-0.0693 5.643906,-0.10387 8.413956,-0.10387 2.770051,-0.0693 5.332327,-0.10386 7.68687,-0.10386 h 5.921085 c 3.462568,0 7.410098,0.0346 11.842178,0.10386 4.43209,0 8.41371,0.0692 11.94553,0.20774 -0.27701,-2.63154 -0.48471,-5.1592 -0.62322,-7.583 -0.0692,-2.49304 -0.10387,-4.39757 -0.10387,-5.71334 0,-3.53182 0.10386,-6.37104 0.31161,-8.51783 h -2.389 c -0.34626,3.60107 -0.83092,6.648 -1.45418,9.14105 -0.62326,2.49304 -1.55847,4.50143 -2.80499,6.02495 -1.17728,1.45428 -2.80434,2.52745 -4.88188,3.21996 -2.00828,0.69251 -4.63979,1.0387 -7.89461,1.0387 h -7.583005 c -2.354543,0 -4.155214,-0.1731 -5.401737,-0.51935 -1.177272,-0.41552 -1.973494,-1.24635 -2.389002,-2.49287 -0.415507,-1.24653 -0.623734,-3.11644 -0.623734,-5.60948 v -51.52295 c 0,-2.5623 0.208227,-4.43221 0.623734,-5.60948 0.415508,-1.24653 1.21173,-2.07737 2.389002,-2.49287 1.246523,-0.48476 3.047194,-0.76171 5.401737,-0.83096 v -2.07739 c -1.592779,0.0693 -3.601161,0.13849 -6.024955,0.20774 -2.354543,0.0693 -4.743727,0.10387 -7.167521,0.10387 -2.700799,0 -5.228457,-0.0346 -7.583,-0.10387 -2.354543,-0.0692 -4.25907,-0.13849 -5.713346,-0.20774 z"
           id="path27" /></g><g
         id="g54"><g
           id="g53"
           transform="matrix(0.74519797,0,0,0.74519797,27.050592,10.019026)"><g
             id="g51"
             style="fill:#262d34;fill-opacity:1"><path
               style="font-weight:bold;font-size:21.4735px;line-height:13.2292px;font-family:Constantia;-inkscape-font-specification:'Constantia Bold';letter-spacing:-1.05833px;word-spacing:0.764646px;fill:#262d34;fill-opacity:1;stroke-width:0.387169;stroke-linejoin:round"
               d="m 174.91561,56.231105 v 1.687731 q 0,0.603491 0.0102,0.987066 0.005,0.122744 0.13298,0.163659 l 0.7518,0.214802 0.0154,0.255716 q -0.79273,-0.01535 -1.65705,-0.01535 -0.88478,0 -1.59567,0.01535 l -0.0256,-0.255716 0.68532,-0.18923 q 0.13297,-0.04091 0.13808,-0.158545 0.0102,-0.414261 0.0102,-1.017752 v -4.076125 q 0,-0.255717 -0.005,-0.465404 0,-0.209688 -0.005,-0.383576 -0.005,-0.132972 -0.12275,-0.168773 l -0.68532,-0.199459 -0.0153,-0.260831 q 0.71601,0.02046 1.36041,0.02046 h 1.29393 q 1.24278,0 2.57763,-0.02046 l 0.0358,0.04091 -0.31709,1.703073 -0.27618,0.04091 -0.32732,-1.242783 h -1.97924 v 2.833342 h 0.29152 q 0.45006,0 0.95637,-0.01023 0.13809,-0.0051 0.1739,-0.138086 l 0.18411,-0.700664 0.33755,-0.01535 q -0.0154,0.741579 -0.0154,1.10981 0,0.358004 0.0154,1.094468 l -0.33755,0.03068 -0.18923,-0.726235 q -0.0358,-0.132973 -0.15855,-0.143202 -0.51654,-0.01023 -0.97172,-0.01023 z"
               id="path43" /><path
               id="path41"
               style="font-weight:bold;font-size:21.4735px;line-height:13.2292px;font-family:Constantia;-inkscape-font-specification:'Constantia Bold';letter-spacing:-1.05833px;word-spacing:0.764646px;fill:#262d34;fill-opacity:1;stroke-width:0.387169;stroke-linejoin:round"
               d="m 166.16466,55.857759 q 0,1.636587 0.55235,2.506024 0.55234,0.864322 1.62124,0.864322 1.05355,0 1.55476,-0.787607 0.50631,-0.787608 0.50631,-2.475339 0,-1.585443 -0.53189,-2.434423 -0.53189,-0.854094 -1.64681,-0.854094 -1.07913,0 -1.5701,0.792723 -0.48586,0.787607 -0.48586,2.388394 z m 5.95308,-0.06649 q 0,1.769559 -1.04333,2.848683 -1.04332,1.074011 -2.90493,1.074011 -1.77979,0 -2.75151,-0.992181 -0.97173,-0.997295 -0.97173,-2.695254 0,-1.76956 1.04844,-2.797541 1.04844,-1.033096 2.89982,-1.033096 1.77979,0 2.75152,0.966609 0.97172,0.961496 0.97172,2.628769 z" /><path
               id="path39"
               style="font-weight:bold;font-size:21.4735px;line-height:13.2292px;font-family:Constantia;-inkscape-font-specification:'Constantia Bold';letter-spacing:-1.05833px;word-spacing:0.764646px;fill:#262d34;fill-opacity:1;stroke-width:0.79375;stroke-linejoin:round"
               d="m 153.99241,59.915738 q 0,0.629107 0,1.132392 0.0105,0.4928 0.021,0.901719 0.0105,0.335523 0.24115,0.408919 l 1.09045,0.356494 0.0315,0.524255 q -1.16385,-0.03146 -2.8834,-0.03146 -1.8349,0 -3.27136,0.03146 l -0.0524,-0.524255 1.405,-0.387949 q 0.26213,-0.0734 0.2831,-0.325039 0.0105,-0.419404 0.0105,-0.933174 0.0105,-0.524255 0.0105,-1.153362 v -8.35663 q 0,-0.524256 -0.0105,-0.954145 0,-0.429889 -0.0105,-0.786383 -0.0105,-0.272613 -0.25164,-0.346008 l -1.40501,-0.40892 -0.0315,-0.53474 q 1.46791,0.04194 3.00922,0.04194 0.32504,0 0.80736,-0.01048 0.48231,-0.02097 1.17433,-0.04194 0.6291,-0.02097 1.04851,-0.03146 0.42989,-0.01048 0.67105,-0.01048 2.69467,0 4.03676,0.90172 1.35258,0.901719 1.35258,2.631761 0,1.562281 -0.82832,2.526911 -0.81784,0.954145 -2.41158,1.467915 0.88075,1.300154 1.35258,2.107507 0.48232,0.807353 0.96463,1.593736 0.48232,0.775898 0.87026,1.373549 0.39844,0.597651 0.74445,0.94366 0.18873,0.157276 0.35649,0.272612 0.17825,0.115337 0.36698,0.199218 0.18873,0.08388 0.39843,0.146791 0.22019,0.05243 0.48232,0.104851 l 0.0419,0.534741 q -1.02754,0.146791 -2.34866,0.146791 -1.04852,0 -1.46792,-0.136306 -0.4194,-0.136307 -0.74444,-0.387949 -0.48232,-0.377464 -0.89124,-0.9856 -0.39843,-0.608137 -0.84929,-1.373549 -0.45086,-0.765413 -0.93317,-1.625192 -0.47183,-0.859779 -0.99609,-1.698587 -0.15728,-0.241158 -0.26213,-0.398434 -0.0944,-0.157277 -0.19921,-0.230673 -0.0944,-0.08388 -0.20971,-0.115336 -0.10485,-0.04194 -0.27261,-0.05242 l -0.44037,-0.01049 z m 0,-4.41423 q 0.55571,0.03145 1.00657,0.03145 1.48888,0 2.1809,-0.744442 0.69202,-0.754928 0.69202,-2.348664 0,-1.541311 -0.67105,-2.243813 -0.66056,-0.712987 -2.06557,-0.712987 -0.24115,0 -0.52425,0.02097 -0.27262,0.02097 -0.61862,0.06291 z" /><path
               style="font-weight:bold;font-size:21.4735px;line-height:13.2292px;font-family:Constantia;-inkscape-font-specification:'Constantia Bold';letter-spacing:-1.05833px;word-spacing:0.764646px;fill:#262d34;fill-opacity:1;stroke-width:0.79375;stroke-linejoin:round"
               d="m 140.08899,48.570852 h 2.65273 q 2.54788,0 5.28449,-0.04194 l 0.0734,0.08388 -0.65008,3.49154 -0.56619,0.08388 -0.67105,-2.547881 h -4.05774 v 5.567592 h 0.5662 q 0.9122,0 1.96071,-0.02097 0.27262,-0.01049 0.3565,-0.283098 l 0.37746,-1.43646 0.69202,-0.03146 q -0.0315,1.520341 -0.0315,2.275268 0,0.733958 0.0315,2.243813 l -0.69202,0.05243 -0.38795,-1.4784 q -0.0839,-0.283098 -0.32504,-0.293583 -1.06948,-0.02097 -1.99217,-0.02097 h -0.55571 v 3.596392 q 0,1.153362 0.021,2.285753 h 4.19405 l 1.32112,-2.757583 0.63959,-0.09437 -0.25164,3.92143 -0.0734,0.0734 q -2.61079,-0.03146 -5.08527,-0.03146 h -2.77856 q -1.35258,0 -2.78904,0.03146 L 137.3,62.71526 l 1.405,-0.387949 q 0.26213,-0.0734 0.2831,-0.325039 0.0105,-0.419404 0.0105,-0.933174 0.0105,-0.524255 0.0105,-1.153362 v -8.35663 q 0,-0.524256 -0.0105,-0.954145 0,-0.429889 -0.0105,-0.786383 -0.0105,-0.272613 -0.25164,-0.346008 l -1.40501,-0.40892 -0.0315,-0.53474 q 1.46791,0.04194 2.78904,0.04194 z"
               id="path38" /><path
               style="font-weight:bold;font-size:21.4735px;line-height:13.2292px;font-family:Constantia;-inkscape-font-specification:'Constantia Bold';letter-spacing:-1.05833px;word-spacing:0.764646px;fill:#262d34;fill-opacity:1;stroke-width:0.79375;stroke-linejoin:round"
               d="m 129.93917,63.208062 q -1.84538,0 -3.52299,0.03146 l -0.0524,-0.524255 1.67762,-0.461345 q 0.26213,-0.08388 0.27261,-0.335523 0.021,-0.786383 0.021,-2.023626 v -10.24395 h -3.01971 l -0.96463,2.789039 -0.58716,0.09437 -0.27262,-3.92143 0.0734,-0.08388 q 2.57933,0.04194 4.93848,0.04194 h 2.92535 q 2.35915,0 4.96994,-0.04194 l 0.0629,0.08388 -0.69202,3.837549 -0.58716,0.09437 -0.68154,-2.89389 h -3.03019 v 10.24395 q 0,1.237243 0.021,2.023626 0.0105,0.251642 0.2831,0.335523 l 1.64616,0.461345 0.0315,0.524255 q -1.74052,-0.03146 -3.51251,-0.03146 z"
               id="path37" /><path
               style="font-weight:bold;font-size:21.4735px;line-height:13.2292px;font-family:Constantia;-inkscape-font-specification:'Constantia Bold';letter-spacing:-1.05833px;word-spacing:0.764646px;fill:#262d34;fill-opacity:1;stroke-width:0.79375;stroke-linejoin:round"
               d="m 116.13012,63.208062 q -1.84538,0 -3.523,0.03146 l -0.0524,-0.524255 1.67761,-0.461345 q 0.26213,-0.08388 0.27262,-0.335523 0.021,-0.786383 0.021,-2.023626 v -10.24395 h -3.01971 l -0.96463,2.789039 -0.58717,0.09437 -0.27261,-3.92143 0.0734,-0.08388 q 2.57934,0.04194 4.93849,0.04194 h 2.92534 q 2.35915,0 4.96994,-0.04194 l 0.0629,0.08388 -0.69202,3.837549 -0.58717,0.09437 -0.68153,-2.89389 h -3.0302 v 10.24395 q 0,1.237243 0.021,2.023626 0.0105,0.251642 0.2831,0.335523 l 1.64616,0.461345 0.0315,0.524255 q -1.74053,-0.03146 -3.51251,-0.03146 z"
               id="path36" /><path
               style="font-weight:bold;font-size:21.4735px;line-height:13.2292px;font-family:Constantia;-inkscape-font-specification:'Constantia Bold';letter-spacing:-1.05833px;word-spacing:0.764646px;fill:#262d34;fill-opacity:1;stroke-width:0.79375;stroke-linejoin:round"
               d="m 100.60151,48.570852 h 2.65273 q 2.54788,0 5.2845,-0.04194 l 0.0734,0.08388 -0.65008,3.49154 -0.56619,0.08388 -0.67105,-2.547881 h -4.05773 v 5.567592 h 0.56619 q 0.91221,0 1.96072,-0.02097 0.27261,-0.01049 0.35649,-0.283098 l 0.37746,-1.43646 0.69202,-0.03146 q -0.0314,1.520341 -0.0314,2.275268 0,0.733958 0.0314,2.243813 l -0.69202,0.05243 -0.38795,-1.4784 q -0.0839,-0.283098 -0.32503,-0.293583 -1.06948,-0.02097 -1.99217,-0.02097 h -0.55571 v 3.596392 q 0,1.153362 0.021,2.285753 h 4.19404 l 1.32112,-2.757583 0.63959,-0.09437 -0.25164,3.92143 -0.0734,0.0734 q -2.6108,-0.03146 -5.08528,-0.03146 h -2.77855 q -1.352577,0 -2.789031,0.03146 l -0.0524,-0.524255 1.405004,-0.387949 q 0.26212,-0.0734 0.28309,-0.325039 0.0105,-0.419404 0.0105,-0.933174 0.0105,-0.524255 0.0105,-1.153362 v -8.35663 q 0,-0.524256 -0.0105,-0.954145 0,-0.429889 -0.0105,-0.786383 -0.0105,-0.272613 -0.25164,-0.346008 l -1.404994,-0.40892 -0.0315,-0.53474 q 1.467914,0.04194 2.789031,0.04194 z"
               id="path35" /><path
               style="font-weight:bold;font-size:21.4735px;line-height:13.2292px;font-family:Constantia;-inkscape-font-specification:'Constantia Bold';letter-spacing:-1.05833px;word-spacing:0.764646px;fill:#262d34;fill-opacity:1;stroke-width:0.970788;stroke-linejoin:round"
               d="m 88.132036,48.902607 v 10.143555 q 0,1.410609 0.02565,2.795569 h 5.014071 l 1.756847,-3.641933 0.782247,-0.115419 -0.320596,5.065366 -0.08977,0.08977 q -3.167451,-0.03847 -6.193848,-0.03847 h -3.18028 q -1.910733,0 -3.539345,0.03847 l -0.06412,-0.641185 1.590141,-0.474478 q 0.320592,-0.08977 0.34624,-0.397535 0.01283,-0.512948 0.01283,-1.14131 0.01282,-0.641186 0.01282,-1.410609 V 48.953901 q 0,-0.641186 -0.01282,-1.166956 0,-0.525773 -0.01283,-0.96178 -0.01282,-0.333416 -0.307768,-0.423182 l -1.590142,-0.500125 -0.03847,-0.654009 q 1.654258,0.0513 3.821466,0.0513 2.231327,0 3.872761,-0.0513 l 0.06412,0.654009 -1.59014,0.474478 q -0.30777,0.07695 -0.333417,0.384712 -0.01282,0.461653 -0.02565,1.320841 0,0.846366 0,0.820718 z"
               id="path34" /></g><g
             id="g52"
             style="fill:#003268;fill-opacity:1"><path
               style="font-weight:bold;font-size:21.4735px;line-height:13.2292px;font-family:Constantia;-inkscape-font-specification:'Constantia Bold';letter-spacing:-1.05833px;word-spacing:0.764646px;fill:#003268;fill-opacity:1;stroke-width:0.79375;stroke-linejoin:round"
               d="m 169.57435,67.539107 h 2.65273 q 2.54788,0 5.28449,-0.04194 l 0.0734,0.08388 -0.65008,3.49154 -0.5662,0.08388 -0.67104,-2.547881 h -4.05774 v 5.567592 h 0.5662 q 0.9122,0 1.96071,-0.02097 0.27261,-0.01049 0.3565,-0.283098 l 0.37746,-1.43646 0.69202,-0.03145 q -0.0315,1.52034 -0.0315,2.275268 0,0.733958 0.0315,2.243813 l -0.69202,0.05243 -0.38795,-1.478401 q -0.0839,-0.283097 -0.32504,-0.293583 -1.06948,-0.02097 -1.99217,-0.02097 h -0.55571 v 3.596392 q 0,1.153362 0.021,2.285753 h 4.19404 l 1.32113,-2.757583 0.63959,-0.09437 -0.25164,3.92143 -0.0734,0.0734 q -2.61079,-0.03145 -5.08528,-0.03145 h -2.77855 q -1.35258,0 -2.78904,0.03145 l -0.0524,-0.524255 1.405,-0.387949 q 0.26213,-0.0734 0.2831,-0.325039 0.0105,-0.419404 0.0105,-0.933174 0.0105,-0.524256 0.0105,-1.153362 v -8.35663 q 0,-0.524256 -0.0105,-0.954145 0,-0.429889 -0.0105,-0.786383 -0.0105,-0.272613 -0.25164,-0.346009 l -1.40501,-0.408919 -0.0315,-0.53474 q 1.46791,0.04194 2.78904,0.04194 z"
               id="path51" /><path
               style="font-weight:bold;font-size:21.4735px;line-height:13.2292px;font-family:Constantia;-inkscape-font-specification:'Constantia Bold';letter-spacing:-1.05833px;word-spacing:0.764646px;fill:#003268;fill-opacity:1;stroke-width:0.79375;stroke-linejoin:round"
               d="m 158.70842,82.176317 q -1.84538,0 -3.523,0.03145 l -0.0524,-0.524255 1.67761,-0.461345 q 0.26213,-0.08388 0.27262,-0.335523 0.021,-0.786384 0.021,-2.023626 v -10.24395 h -3.01971 l -0.96463,2.789039 -0.58717,0.09437 -0.27261,-3.92143 0.0734,-0.08388 q 2.57934,0.04194 4.93849,0.04194 h 2.92534 q 2.35915,0 4.96994,-0.04194 l 0.0629,0.08388 -0.69201,3.837549 -0.58717,0.09437 -0.68153,-2.89389 h -3.0302 v 10.24395 q 0,1.237242 0.021,2.023626 0.0105,0.251642 0.2831,0.335523 l 1.64616,0.461345 0.0315,0.524255 q -1.74053,-0.03145 -3.51251,-0.03145 z"
               id="path50" /><path
               style="font-weight:bold;font-size:21.4735px;line-height:13.2292px;font-family:Constantia;-inkscape-font-specification:'Constantia Bold';letter-spacing:-1.05833px;word-spacing:0.764646px;fill:#003268;fill-opacity:1;stroke-width:0.79375;stroke-linejoin:round"
               d="m 135.2082,67.497167 q 1.45743,0.04194 3.22942,0.04194 1.8244,0 3.22941,-0.04194 l 0.0524,0.53474 -1.36306,0.387949 q -0.25164,0.06291 -0.27261,0.314553 -0.0105,0.377464 -0.021,0.817839 0,0.429889 0,0.933174 v 5.777294 q 0,2.862435 0.85978,3.963371 0.85978,1.090451 2.78904,1.090451 1.8978,0 2.84146,-1.153362 0.95414,-1.163847 0.95414,-3.764153 v -5.913601 q 0,-0.503285 -0.0105,-0.933174 -0.0105,-0.440375 -0.021,-0.817839 -0.0105,-0.241157 -0.27261,-0.314553 l -1.30016,-0.366979 -0.0315,-0.55571 q 1.39452,0.04194 2.41157,0.04194 0.94366,0 2.36964,-0.04194 l 0.0524,0.53474 -1.42597,0.408919 q -0.25165,0.0734 -0.26213,0.346009 -0.0105,0.356494 -0.021,0.786383 0,0.429889 0,0.954145 v 5.326434 q 0,3.606877 -1.48889,5.179643 -1.4784,1.562281 -4.30938,1.562281 -3.21892,0 -4.74975,-1.488885 -1.53082,-1.499371 -1.53082,-4.791694 v -5.787779 q 0,-0.524256 -0.0105,-0.954145 0,-0.429889 -0.0105,-0.786383 -0.0105,-0.272613 -0.25165,-0.346009 l -1.405,-0.408919 z"
               id="path49" /><path
               id="path47"
               style="font-weight:bold;font-size:21.4735px;line-height:13.2292px;font-family:Constantia;-inkscape-font-specification:'Constantia Bold';letter-spacing:-1.05833px;word-spacing:0.764646px;fill:#003268;fill-opacity:1;stroke-width:0.79375;stroke-linejoin:round"
               d="m 126.25055,75.025474 q 0.59765,0.115336 1.18482,0.115336 1.37355,0 2.08654,-0.838809 0.72347,-0.849293 0.72347,-2.558366 0,-1.656647 -0.68153,-2.464 -0.68154,-0.817838 -2.14945,-0.817838 -0.57668,0 -1.16385,0.08388 z m 0,3.858519 q 0,0.629106 0,1.132392 0.0105,0.4928 0.021,0.891234 0.0105,0.241157 0.27262,0.335523 l 1.54131,0.440375 0.0315,0.524255 q -1.62519,-0.03145 -3.39717,-0.03145 -1.8349,0 -3.27136,0.03145 l -0.0524,-0.524255 1.405,-0.387949 q 0.27262,-0.08388 0.2831,-0.325039 0.0105,-0.419404 0.0105,-0.933174 0.0105,-0.524256 0.0105,-1.153362 v -8.35663 q 0,-0.524256 -0.0105,-0.954145 0,-0.429889 -0.0105,-0.786383 -0.0105,-0.272613 -0.25164,-0.346009 l -1.40501,-0.408919 -0.0315,-0.53474 q 1.46791,0.04194 2.90437,0.04194 0.9856,0 1.90829,-0.04194 0.93318,-0.04194 1.69859,-0.04194 2.83098,0 4.28841,0.9856 1.45743,0.975115 1.45743,2.904375 0,2.275268 -1.52034,3.543966 -1.50986,1.258213 -4.26744,1.258213 -0.74444,0 -1.61471,-0.115336 z" /><path
               style="font-weight:bold;font-size:21.4735px;line-height:13.2292px;font-family:Constantia;-inkscape-font-specification:'Constantia Bold';letter-spacing:-1.05833px;word-spacing:0.764646px;fill:#003268;fill-opacity:1;stroke-width:0.79375;stroke-linejoin:round"
               d="m 117.34544,68.493252 q -0.67105,-0.262128 -1.45743,-0.262128 -1.11142,0 -1.88732,0.650077 -0.76541,0.650077 -0.76541,1.677617 0,0.618621 0.25164,1.058996 0.25164,0.440374 0.67105,0.786383 0.4194,0.346008 0.95414,0.618621 0.54523,0.272613 1.12191,0.545226 0.63959,0.304068 1.28967,0.671047 0.65008,0.356493 1.16385,0.859778 0.51377,0.4928 0.82832,1.184818 0.32504,0.692017 0.32504,1.677617 0,2.128476 -1.60422,3.344749 -1.60423,1.216272 -4.23599,1.216272 -1.8978,0 -3.74318,-0.597651 l -0.0629,-0.09437 0.55571,-3.774638 0.65008,-0.104851 0.78638,3.208442 q 0.75493,0.346009 1.67762,0.346009 1.3316,0 2.13896,-0.671047 0.81784,-0.681532 0.81784,-1.813924 0,-0.639591 -0.25165,-1.079966 -0.25164,-0.450859 -0.68153,-0.796868 -0.42989,-0.356493 -0.97511,-0.629106 -0.54523,-0.272613 -1.13239,-0.545226 -0.6396,-0.314553 -1.27919,-0.660561 -0.63959,-0.346009 -1.14287,-0.838809 -0.50329,-0.4928 -0.81784,-1.174332 -0.31456,-0.692017 -0.31456,-1.667132 0,-2.002655 1.53083,-3.187473 1.53083,-1.184817 3.97386,-1.184817 1.55179,0 3.53348,0.482315 l 0.0629,0.09437 -0.63959,3.376205 -0.57669,0.09437 z"
               id="path46" /><path
               style="font-weight:bold;font-size:21.4735px;line-height:13.2292px;font-family:Constantia;-inkscape-font-specification:'Constantia Bold';letter-spacing:-1.05833px;word-spacing:0.764646px;fill:#003268;fill-opacity:1;stroke-width:0.79375;stroke-linejoin:round"
               d="m 106.9408,78.883993 q 0,0.629106 0,1.142877 0.0105,0.51377 0.021,0.922689 0.0105,0.272613 0.3565,0.366979 l 1.28966,0.366979 0.0315,0.524255 q -1.45743,-0.03145 -3.22941,-0.03145 -1.8349,0 -3.27136,0.03145 l -0.0524,-0.524255 1.405,-0.387949 q 0.26213,-0.0734 0.2831,-0.325039 0.0105,-0.419404 0.0105,-0.933174 0.0105,-0.524256 0.0105,-1.153362 v -8.35663 q 0,-0.524256 -0.0105,-0.954145 0,-0.429889 -0.0105,-0.786383 -0.0105,-0.272613 -0.25164,-0.346009 l -1.40501,-0.408919 -0.0314,-0.53474 q 1.45743,0.04194 3.22941,0.04194 1.82441,0 3.27135,-0.04194 l 0.0524,0.53474 -1.405,0.387949 q -0.25165,0.06291 -0.27262,0.314553 -0.0105,0.377464 -0.021,0.817839 0,0.429889 0,0.933174 z"
               id="path45" /><path
               id="path33"
               style="font-weight:bold;font-size:21.4735px;line-height:13.2292px;font-family:Constantia;-inkscape-font-specification:'Constantia Bold';letter-spacing:-1.05833px;word-spacing:0.764646px;fill:#003268;fill-opacity:1;stroke-width:0.964601;stroke-linejoin:round"
               d="m 85.775958,84.033696 q -1.643715,0 -3.389366,0.03822 l -0.0637,-0.637098 1.707424,-0.471453 q 0.331292,-0.101935 0.344033,-0.395002 0.01275,-0.509679 0.01275,-1.134035 0.01275,-0.6371 0.01275,-1.401618 V 69.877358 q 0,-0.6371 -0.01275,-1.15952 0,-0.522421 -0.01275,-0.955648 -0.01275,-0.331292 -0.305806,-0.420486 l -1.707425,-0.496937 -0.03822,-0.64984 q 1.783876,0.05097 3.414849,0.05097 1.376133,0 2.637589,-0.0637 1.261454,-0.06372 2.612104,-0.06372 4.752751,0 7.148241,2.038716 2.395499,2.025973 2.395499,6.026954 0,4.71453 -2.663079,7.326634 -2.65033,2.599363 -7.466791,2.599363 -1.325166,0 -2.357266,-0.03822 -1.0321,-0.03822 -2.268071,-0.03822 z m 2.446459,-1.299681 q 0.611615,0.114683 1.197746,0.152903 0.586131,0.02548 1.185003,0.02548 2.765005,0 4.204855,-1.949521 1.43983,-1.949523 1.43983,-5.93776 0,-3.886303 -1.37613,-5.759372 -1.37613,-1.885812 -4.332265,-1.885812 -1.09581,0 -2.319039,0.101934 z" /></g></g><rect
           style="fill:#6e777d;fill-opacity:1;stroke-width:0.453202;stroke-linejoin:round"
           id="rect53"
           width="78.262749"
           height="0.52916664"
           x="84.846581"
           y="75.450836" /><text
           xml:space="preserve"
           style="font-style:normal;font-variant:normal;font-weight:normal;font-stretch:normal;font-size:6.11155px;line-height:3.76515px;font-family:Century;-inkscape-font-specification:Century;letter-spacing:-0.0785769px;word-spacing:0.327404px;fill:#6e777d;fill-opacity:1;stroke-width:0.982212;stroke-linejoin:round"
           x="84.641708"
           y="81.627296"
           id="text54"><tspan
             sodipodi:role="line"
             id="tspan54"
             style="font-style:italic;font-variant:normal;font-weight:normal;font-stretch:normal;font-family:Calibri;-inkscape-font-specification:'Calibri Italic';letter-spacing:-0.0785769px;word-spacing:0.327404px;fill:#6e777d;fill-opacity:1;stroke-width:0.982212"
             x="84.641708"
             y="81.627296">Precision Letters. Proven Results.</tspan></text></g></g></g><style
     type="text/css"
     id="style1-3">.st0{fill-rule:evenodd;clip-rule:evenodd;}</style><style
     type="text/css"
     id="style1-8">.st0{fill-rule:evenodd;clip-rule:evenodd;}</style></svg>
