<?xml version="1.0" encoding="UTF-8" standalone="no"?>
<!-- Created with Inkscape (http://www.inkscape.org/) -->

<svg
   width="1000"
   height="1000"
   viewBox="0 0 1000 1000"
   version="1.1"
   id="svg1"
   xml:space="preserve"
   xmlns:inkscape="http://www.inkscape.org/namespaces/inkscape"
   xmlns:sodipodi="http://sodipodi.sourceforge.net/DTD/sodipodi-0.dtd"
   xmlns="http://www.w3.org/2000/svg"
   xmlns:svg="http://www.w3.org/2000/svg"><sodipodi:namedview
     id="namedview1"
     pagecolor="#ffffff"
     bordercolor="#999999"
     borderopacity="1"
     inkscape:showpageshadow="2"
     inkscape:pageopacity="0"
     inkscape:pagecheckerboard="0"
     inkscape:deskcolor="#d1d1d1"
     inkscape:document-units="px" /><defs
     id="defs1"><style
       id="style1">.cls-1{fill:#333;}.cls-1,.cls-2,.cls-3{fill-rule:evenodd;}.cls-2{fill:#fff;}.cls-3{fill:#3aaf3c;}</style></defs><g
     inkscape:label="Layer 1"
     inkscape:groupmode="layer"
     id="layer1"><rect
       style="fill:#003268;fill-opacity:1;stroke-width:3;stroke-linejoin:round"
       id="rect55"
       width="1000"
       height="1000"
       x="0"
       y="0" /><g
       id="g29"
       transform="matrix(6.5241136,0,0,6.5241136,-250.28586,-1073.4005)"><path
         style="font-size:103.877px;line-height:63.9956px;font-family:'Playfair Display';-inkscape-font-specification:'Playfair Display, Normal';letter-spacing:-5.11962px;word-spacing:3.69894px;fill:#aa8800;fill-opacity:0.94902;stroke-width:3.83973;stroke-linejoin:round"
         d="m 95.958167,210.98716 v 2.07739 c 2.354542,0.0692 4.120593,0.3462 5.297863,0.83096 1.24653,0.4155 2.07737,1.24635 2.49288,2.49287 0.41551,1.17727 0.62322,3.04718 0.62322,5.60948 v 45.8897 c 2.65063,-0.0832 4.8686,-0.4067 6.59649,-1.00252 1.1647,-0.38823 2.18275,-0.90049 3.06442,-1.52807 v -43.56685 c 0,-3.60106 0.48465,-5.99025 1.45417,-7.16752 0.96952,-1.17727 3.04714,-1.76579 6.2327,-1.76579 7.20212,0 12.88058,1.28088 17.03565,3.84318 4.22432,2.49304 7.23664,6.3021 9.03717,11.42669 1.86979,5.05534 2.805,11.4613 2.805,19.21743 0,7.54838 -0.83137,13.95383 -2.49339,19.21692 -1.66203,5.26309 -4.57049,9.27986 -8.72556,12.04991 -4.15508,2.7008 -10.00662,4.05091 -17.55501,4.05091 -3.18555,0 -5.29779,-0.58851 -6.33656,-1.76578 -0.96952,-1.17727 -1.59489,-3.56921 -1.45417,-7.16752 l 0.0565,-1.44405 c -1.0396,-0.10721 -1.93746,-0.0999 -3.01363,-0.0999 -2.50307,-0.0762 -4.20947,-0.047 -6.65697,-0.0555 l -0.0468,1.39181 c -0.0837,2.49163 -0.20771,4.36295 -0.62322,5.60948 -0.41551,1.24651 -1.24635,2.07736 -2.49288,2.49287 -1.17727,0.4155 -2.943321,0.69246 -5.297863,0.83095 v 2.07791 c 1.454277,-0.1385 3.358805,-0.20773 5.713343,-0.20773 2.35454,-0.0693 4.74373,-0.10387 7.16753,-0.10387 1.52352,0 3.18572,0.0346 4.98626,0.10387 1.86977,0 3.66993,0.0346 5.40122,0.10386 1.73127,0.0693 3.11653,0.10387 4.1553,0.10387 7.96388,0 14.75065,-1.55835 20.36,-4.67465 5.60935,-3.1163 9.86793,-7.47926 12.77648,-13.0886 2.9778,-5.6786 4.46691,-12.29176 4.46691,-19.84014 0,-11.56495 -3.01232,-20.42933 -9.03718,-26.59269 -6.02484,-6.2326 -15.23542,-9.34878 -27.63138,-9.34878 -1.93903,0 -4.43208,0.0346 -7.47913,0.10387 -3.04706,0.0693 -5.78243,0.13849 -8.20622,0.20774 -2.2853,0.0692 -4.60525,0.0692 -6.95979,0 -2.354538,-0.13851 -4.259066,-0.24236 -5.713343,-0.31161 z"
         id="path28"
         sodipodi:nodetypes="ccccscccsssccsscscscccssccccscssscscsscccc" /><path
         style="font-size:103.877px;line-height:63.9956px;font-family:'Playfair Display';-inkscape-font-specification:'Playfair Display, Normal';letter-spacing:-5.11962px;word-spacing:3.69894px;fill:#aa8800;fill-opacity:0.94902;stroke-width:3.83973;stroke-linejoin:round"
         d="m 69.018703,197.80176 v 2.07739 c 2.354543,0.0693 4.120596,0.3462 5.297868,0.83096 1.246522,0.4155 2.077363,1.24634 2.492871,2.49287 0.415507,1.17727 0.623218,3.04718 0.623218,5.60948 v 51.52295 c 0,2.49304 -0.207711,4.36295 -0.623218,5.60948 -0.415508,1.24652 -1.246349,2.07735 -2.492871,2.49287 -1.177272,0.4155 -2.943325,0.69245 -5.297868,0.83095 v 2.07791 c 2.562297,-0.0692 5.263046,-0.10387 8.102348,-0.10387 2.839302,-0.0693 5.643906,-0.10387 8.413956,-0.10387 2.770051,-0.0693 5.332327,-0.10386 7.68687,-0.10386 h 5.921085 c 3.462568,0 7.410098,0.0346 11.842178,0.10386 4.43209,0 8.41371,0.0692 11.94553,0.20774 -0.27701,-2.63154 -0.48471,-5.1592 -0.62322,-7.583 -0.0692,-2.49304 -0.10387,-4.39757 -0.10387,-5.71334 0,-3.53182 0.10386,-6.37104 0.31161,-8.51783 h -2.389 c -0.34626,3.60107 -0.83092,6.648 -1.45418,9.14105 -0.62326,2.49304 -1.55847,4.50143 -2.80499,6.02495 -1.17728,1.45428 -2.80434,2.52745 -4.88188,3.21996 -2.00828,0.69251 -4.63979,1.0387 -7.89461,1.0387 h -7.583005 c -2.354543,0 -4.155214,-0.1731 -5.401737,-0.51935 -1.177272,-0.41552 -1.973494,-1.24635 -2.389002,-2.49287 -0.415507,-1.24653 -0.623734,-3.11644 -0.623734,-5.60948 v -51.52295 c 0,-2.5623 0.208227,-4.43221 0.623734,-5.60948 0.415508,-1.24653 1.21173,-2.07737 2.389002,-2.49287 1.246523,-0.48476 3.047194,-0.76171 5.401737,-0.83096 v -2.07739 c -1.592779,0.0693 -3.601161,0.13849 -6.024955,0.20774 -2.354543,0.0693 -4.743727,0.10387 -7.167521,0.10387 -2.700799,0 -5.228457,-0.0346 -7.583,-0.10387 -2.354543,-0.0692 -4.25907,-0.13849 -5.713346,-0.20774 z"
         id="path27" /></g></g><style
     type="text/css"
     id="style1-3">.st0{fill-rule:evenodd;clip-rule:evenodd;}</style><style
     type="text/css"
     id="style1-8">.st0{fill-rule:evenodd;clip-rule:evenodd;}</style></svg>
